<svg version="1.1" id="Layer_1" xmlns="http://www.w3.org/2000/svg" xmlns:xlink="http://www.w3.org/1999/xlink" x="0px" y="0px"
	 width="100%" viewBox="0 0 2048 2048" enable-background="new 0 0 2048 2048" xml:space="preserve">
<path fill="#000000" opacity="1.000000" stroke="none" 
	d="
M1183.000000,2049.000000 
	C788.666687,2049.000000 394.833344,2049.000000 1.000000,2049.000000 
	C1.000000,1366.333374 1.000000,683.666687 1.000000,1.000000 
	C683.666687,1.000000 1366.333374,1.000000 2049.000000,1.000000 
	C2049.000000,683.666687 2049.000000,1366.333374 2049.000000,2049.000000 
	C1760.500000,2049.000000 1472.000000,2049.000000 1183.000000,2049.000000 
M953.548157,2038.000000 
	C966.382385,2038.666748 979.215759,2039.869263 992.050964,2039.888184 
	C1018.472595,2039.927124 1044.898315,2039.486206 1071.315796,2038.928833 
	C1082.667236,2038.689209 1094.017944,2037.862793 1105.340820,2036.952148 
	C1119.346069,2035.825928 1133.352051,2034.589600 1147.301758,2032.930420 
	C1161.322632,2031.262573 1175.332031,2029.349487 1189.243530,2026.947754 
	C1210.898560,2023.209229 1232.661987,2019.795898 1254.028931,2014.757935 
	C1293.643799,2005.417603 1332.945679,1994.752319 1370.954590,1979.970337 
	C1396.517578,1970.028564 1422.109985,1960.091919 1447.228882,1949.101074 
	C1466.096436,1940.845459 1484.395386,1931.228027 1502.645874,1921.642456 
	C1519.454956,1912.813599 1536.309082,1903.926636 1552.338867,1893.792725 
	C1575.351562,1879.243652 1598.080933,1864.154785 1620.105713,1848.159790 
	C1643.101807,1831.458984 1665.408203,1813.765869 1687.459717,1795.822876 
	C1701.446777,1784.441772 1714.745239,1772.152832 1727.752075,1759.646484 
	C1740.662354,1747.233154 1753.168091,1734.353760 1765.225464,1721.109131 
	C1782.645386,1701.973633 1799.737427,1682.525757 1816.509399,1662.819580 
	C1826.736450,1650.803223 1836.649414,1638.438721 1845.726074,1625.542725 
	C1860.472168,1604.591919 1874.975830,1583.426270 1888.542114,1561.701904 
	C1902.111938,1539.971802 1915.291382,1517.901733 1927.028076,1495.148193 
	C1940.669800,1468.701050 1952.962280,1441.528931 1965.056396,1414.323120 
	C1972.470215,1397.645752 1979.053345,1380.529663 1984.863159,1363.225708 
	C1993.142212,1338.568359 2000.962158,1313.720947 2007.868530,1288.649170 
	C2014.029419,1266.284424 2019.065186,1243.585693 2023.872192,1220.880737 
	C2027.228271,1205.028320 2029.508057,1188.939819 2031.995483,1172.914429 
	C2034.193115,1158.755615 2036.200439,1144.561279 2037.938354,1130.339355 
	C2039.247559,1119.625488 2040.198120,1108.857178 2040.944824,1098.088013 
	C2041.833008,1085.276367 2042.883789,1072.437866 2042.889160,1059.610718 
	C2042.901855,1029.531494 2042.383789,999.451416 2041.966431,969.373230 
	C2041.854248,961.277466 2041.389404,953.184570 2040.975464,945.096008 
	C2040.774902,941.176086 2040.412476,937.258301 2039.960327,933.358398 
	C2038.344971,919.426208 2036.768799,905.488098 2034.971313,891.578796 
	C2033.093750,877.049927 2031.439697,862.468689 2028.847534,848.061584 
	C2025.699951,830.567261 2022.129639,813.119751 2017.918579,795.852844 
	C2011.633545,770.082764 2005.304810,744.286499 1997.720825,718.881592 
	C1991.437134,697.832520 1983.915527,677.095032 1975.847046,656.651794 
	C1966.312622,632.494507 1955.987061,608.626770 1945.262207,584.969971 
	C1938.272949,569.553101 1930.147339,554.636719 1922.187622,539.678772 
	C1914.928955,526.038513 1907.810791,512.262756 1899.557983,499.225708 
	C1884.797729,475.909332 1869.844604,452.665710 1853.825684,430.209473 
	C1838.288940,408.429077 1821.718750,387.345154 1804.832642,366.581329 
	C1792.117065,350.945526 1778.831299,335.657562 1764.642456,321.363037 
	C1743.777588,300.342926 1722.277710,279.907806 1700.299438,260.052551 
	C1682.751465,244.199799 1664.366943,229.229706 1645.825684,214.533997 
	C1631.496216,203.176437 1616.524536,192.597977 1601.508789,182.146713 
	C1589.467651,173.765869 1577.145996,165.738968 1564.567505,158.190170 
	C1542.933960,145.207108 1521.368530,132.032074 1499.107056,120.192657 
	C1469.804565,104.608612 1439.869263,90.182640 1408.781494,78.402382 
	C1386.402710,69.922241 1364.074951,61.188419 1341.291504,53.926613 
	C1315.548828,45.721661 1289.471680,38.438686 1263.260132,31.871347 
	C1240.269287,26.110937 1216.975098,21.438463 1193.654907,17.157476 
	C1178.142212,14.309751 1162.359863,12.894583 1146.676270,11.023280 
	C1131.603394,9.224874 1116.522095,7.446702 1101.406982,6.071569 
	C1090.096558,5.042582 1078.726562,4.106921 1067.383423,4.110897 
	C1037.460938,4.121384 1007.532288,4.396903 977.618958,5.109320 
	C962.180664,5.476999 946.761841,6.890229 931.349487,8.036480 
	C920.416321,8.849590 909.460815,9.647347 898.601501,11.097547 
	C883.792664,13.075170 869.022217,15.423576 854.314697,18.056278 
	C835.208862,21.476286 816.027588,24.684813 797.157837,29.160858 
	C772.611145,34.983536 748.175659,41.415298 724.000122,48.617943 
	C705.080444,54.254692 686.387817,60.853622 668.026306,68.116959 
	C640.699951,78.926575 613.437805,90.010536 586.747986,102.281845 
	C565.806458,111.910255 545.558899,123.129196 525.400269,134.354935 
	C507.576202,144.280640 489.848022,154.513458 472.894501,165.834229 
	C450.407440,180.850052 428.487823,196.749283 406.757874,212.853806 
	C391.630280,224.065170 376.977661,235.958969 362.580414,248.102249 
	C349.019043,259.540436 335.584778,271.212952 322.967957,283.667206 
	C305.170715,301.235107 287.826385,319.296478 270.949127,337.751099 
	C256.728607,353.300690 243.133102,369.454407 229.846252,385.816040 
	C217.166214,401.430450 204.750031,417.309906 193.122070,433.713806 
	C181.101898,450.671051 169.695236,468.110779 158.887115,485.867126 
	C146.433853,506.326263 134.589996,527.178101 123.132248,548.213806 
	C115.423790,562.366089 108.655739,577.044983 101.811623,591.649780 
	C94.716385,606.790344 87.210960,621.816284 81.354103,637.442932 
	C70.476135,666.466431 60.380985,695.794617 50.533127,725.187988 
	C45.692982,739.634644 41.582401,754.381958 38.123001,769.221985 
	C32.634480,792.766235 27.619921,816.435486 23.067192,840.178833 
	C19.522984,858.662537 16.619928,877.290344 14.113908,895.945618 
	C11.917493,912.296326 10.487285,928.758545 9.065639,945.201599 
	C8.073727,956.674255 7.027555,968.202637 7.118587,979.697388 
	C7.405213,1015.890076 5.468648,1052.124146 8.967499,1088.268677 
	C10.483252,1103.927124 11.481348,1119.636230 13.052210,1135.288330 
	C14.469457,1149.409912 15.792027,1163.578857 18.153225,1177.558594 
	C21.625702,1198.117920 25.309338,1218.687866 30.125483,1238.962891 
	C37.185921,1268.685913 44.329376,1298.459229 53.301849,1327.637573 
	C61.492962,1354.275024 71.750496,1380.311035 81.881721,1406.306396 
	C89.116241,1424.869263 97.188873,1443.143433 105.702637,1461.161255 
	C121.004318,1493.544922 138.021652,1525.065674 157.166580,1555.337646 
	C171.477417,1577.966187 186.212036,1600.378784 201.858337,1622.094849 
	C215.162979,1640.561035 229.683533,1658.192993 244.320526,1675.645142 
	C259.058197,1693.217285 274.024506,1710.671387 289.947418,1727.156372 
	C308.010712,1745.857300 327.198425,1763.476074 346.003967,1781.453613 
	C351.450226,1786.659912 357.097015,1791.686890 362.941284,1796.440308 
	C376.062225,1807.112671 389.153625,1817.841431 402.647095,1828.030640 
	C419.410004,1840.688477 436.290497,1853.229492 453.633759,1865.068726 
	C469.747406,1876.068604 486.361237,1886.369873 503.077240,1896.443848 
	C519.353638,1906.252686 535.845337,1915.745361 552.603821,1924.700806 
	C566.832947,1932.304443 581.511902,1939.082764 596.113770,1945.968018 
	C608.468628,1951.793579 620.735901,1957.949341 633.502502,1962.728760 
	C664.026062,1974.156372 694.697388,1985.223267 725.558899,1995.700073 
	C741.059875,2000.962158 757.012695,2004.998657 772.929260,2008.904785 
	C793.477295,2013.947266 814.134277,2018.592773 834.858032,2022.856445 
	C848.826538,2025.730469 862.957520,2027.885986 877.079346,2029.921875 
	C888.860962,2031.620728 900.727295,2032.750122 912.569946,2034.001709 
	C925.902771,2035.410645 939.250977,2036.673584 953.548157,2038.000000 
z"/>
<path fill="#DDDDDD" opacity="1.000000" stroke="none" 
	d="
M953.070312,2038.000000 
	C939.250977,2036.673584 925.902771,2035.410645 912.569946,2034.001709 
	C900.727295,2032.750122 888.860962,2031.620728 877.079346,2029.921875 
	C862.957520,2027.885986 848.826538,2025.730469 834.858032,2022.856445 
	C814.134277,2018.592773 793.477295,2013.947266 772.929260,2008.904785 
	C757.012695,2004.998657 741.059875,2000.962158 725.558899,1995.700073 
	C694.697388,1985.223267 664.026062,1974.156372 633.502502,1962.728760 
	C620.735901,1957.949341 608.468628,1951.793579 596.113770,1945.968018 
	C581.511902,1939.082764 566.832947,1932.304443 552.603821,1924.700806 
	C535.845337,1915.745361 519.353638,1906.252686 503.077240,1896.443848 
	C486.361237,1886.369873 469.747406,1876.068604 453.633759,1865.068726 
	C436.290497,1853.229492 419.410004,1840.688477 402.647095,1828.030640 
	C389.153625,1817.841431 376.062225,1807.112671 362.941284,1796.440308 
	C357.097015,1791.686890 351.450226,1786.659912 346.003967,1781.453613 
	C327.198425,1763.476074 308.010712,1745.857300 289.947418,1727.156372 
	C274.024506,1710.671387 259.058197,1693.217285 244.320526,1675.645142 
	C229.683533,1658.192993 215.162979,1640.561035 201.858337,1622.094849 
	C186.212036,1600.378784 171.477417,1577.966187 157.166580,1555.337646 
	C138.021652,1525.065674 121.004318,1493.544922 105.702637,1461.161255 
	C97.188873,1443.143433 89.116241,1424.869263 81.881721,1406.306396 
	C71.750496,1380.311035 61.492962,1354.275024 53.301849,1327.637573 
	C44.329376,1298.459229 37.185921,1268.685913 30.125483,1238.962891 
	C25.309338,1218.687866 21.625702,1198.117920 18.153225,1177.558594 
	C15.792027,1163.578857 14.469457,1149.409912 13.052210,1135.288330 
	C11.481348,1119.636230 10.483252,1103.927124 8.967499,1088.268677 
	C5.468648,1052.124146 7.405213,1015.890076 7.118587,979.697388 
	C7.027555,968.202637 8.073727,956.674255 9.065639,945.201599 
	C10.487285,928.758545 11.917493,912.296326 14.113908,895.945618 
	C16.619928,877.290344 19.522984,858.662537 23.067192,840.178833 
	C27.619921,816.435486 32.634480,792.766235 38.123001,769.221985 
	C41.582401,754.381958 45.692982,739.634644 50.533127,725.187988 
	C60.380985,695.794617 70.476135,666.466431 81.354103,637.442932 
	C87.210960,621.816284 94.716385,606.790344 101.811623,591.649780 
	C108.655739,577.044983 115.423790,562.366089 123.132248,548.213806 
	C134.589996,527.178101 146.433853,506.326263 158.887115,485.867126 
	C169.695236,468.110779 181.101898,450.671051 193.122070,433.713806 
	C204.750031,417.309906 217.166214,401.430450 229.846252,385.816040 
	C243.133102,369.454407 256.728607,353.300690 270.949127,337.751099 
	C287.826385,319.296478 305.170715,301.235107 322.967957,283.667206 
	C335.584778,271.212952 349.019043,259.540436 362.580414,248.102249 
	C376.977661,235.958969 391.630280,224.065170 406.757874,212.853806 
	C428.487823,196.749283 450.407440,180.850052 472.894501,165.834229 
	C489.848022,154.513458 507.576202,144.280640 525.400269,134.354935 
	C545.558899,123.129196 565.806458,111.910255 586.747986,102.281845 
	C613.437805,90.010536 640.699951,78.926575 668.026306,68.116959 
	C686.387817,60.853622 705.080444,54.254692 724.000122,48.617943 
	C748.175659,41.415298 772.611145,34.983536 797.157837,29.160858 
	C816.027588,24.684813 835.208862,21.476286 854.314697,18.056278 
	C869.022217,15.423576 883.792664,13.075170 898.601501,11.097547 
	C909.460815,9.647347 920.416321,8.849590 931.349487,8.036480 
	C946.761841,6.890229 962.180664,5.476999 977.618958,5.109320 
	C1007.532288,4.396903 1037.460938,4.121384 1067.383423,4.110897 
	C1078.726562,4.106921 1090.096558,5.042582 1101.406982,6.071569 
	C1116.522095,7.446702 1131.603394,9.224874 1146.676270,11.023280 
	C1162.359863,12.894583 1178.142212,14.309751 1193.654907,17.157476 
	C1216.975098,21.438463 1240.269287,26.110937 1263.260132,31.871347 
	C1289.471680,38.438686 1315.548828,45.721661 1341.291504,53.926613 
	C1364.074951,61.188419 1386.402710,69.922241 1408.781494,78.402382 
	C1439.869263,90.182640 1469.804565,104.608612 1499.107056,120.192657 
	C1521.368530,132.032074 1542.933960,145.207108 1564.567505,158.190170 
	C1577.145996,165.738968 1589.467651,173.765869 1601.508789,182.146713 
	C1616.524536,192.597977 1631.496216,203.176437 1645.825684,214.533997 
	C1664.366943,229.229706 1682.751465,244.199799 1700.299438,260.052551 
	C1722.277710,279.907806 1743.777588,300.342926 1764.642456,321.363037 
	C1778.831299,335.657562 1792.117065,350.945526 1804.832642,366.581329 
	C1821.718750,387.345154 1838.288940,408.429077 1853.825684,430.209473 
	C1869.844604,452.665710 1884.797729,475.909332 1899.557983,499.225708 
	C1907.810791,512.262756 1914.928955,526.038513 1922.187622,539.678772 
	C1930.147339,554.636719 1938.272949,569.553101 1945.262207,584.969971 
	C1955.987061,608.626770 1966.312622,632.494507 1975.847046,656.651794 
	C1983.915527,677.095032 1991.437134,697.832520 1997.720825,718.881592 
	C2005.304810,744.286499 2011.633545,770.082764 2017.918579,795.852844 
	C2022.129639,813.119751 2025.699951,830.567261 2028.847534,848.061584 
	C2031.439697,862.468689 2033.093750,877.049927 2034.971313,891.578796 
	C2036.768799,905.488098 2038.344971,919.426208 2039.960327,933.358398 
	C2040.412476,937.258301 2040.774902,941.176086 2040.975464,945.096008 
	C2041.389404,953.184570 2041.854248,961.277466 2041.966431,969.373230 
	C2042.383789,999.451416 2042.901855,1029.531494 2042.889160,1059.610718 
	C2042.883789,1072.437866 2041.833008,1085.276367 2040.944824,1098.088013 
	C2040.198120,1108.857178 2039.247559,1119.625488 2037.938354,1130.339355 
	C2036.200439,1144.561279 2034.193115,1158.755615 2031.995483,1172.914429 
	C2029.508057,1188.939819 2027.228271,1205.028320 2023.872192,1220.880737 
	C2019.065186,1243.585693 2014.029419,1266.284424 2007.868530,1288.649170 
	C2000.962158,1313.720947 1993.142212,1338.568359 1984.863159,1363.225708 
	C1979.053345,1380.529663 1972.470215,1397.645752 1965.056396,1414.323120 
	C1952.962280,1441.528931 1940.669800,1468.701050 1927.028076,1495.148193 
	C1915.291382,1517.901733 1902.111938,1539.971802 1888.542114,1561.701904 
	C1874.975830,1583.426270 1860.472168,1604.591919 1845.726074,1625.542725 
	C1836.649414,1638.438721 1826.736450,1650.803223 1816.509399,1662.819580 
	C1799.737427,1682.525757 1782.645386,1701.973633 1765.225464,1721.109131 
	C1753.168091,1734.353760 1740.662354,1747.233154 1727.752075,1759.646484 
	C1714.745239,1772.152832 1701.446777,1784.441772 1687.459717,1795.822876 
	C1665.408203,1813.765869 1643.101807,1831.458984 1620.105713,1848.159790 
	C1598.080933,1864.154785 1575.351562,1879.243652 1552.338867,1893.792725 
	C1536.309082,1903.926636 1519.454956,1912.813599 1502.645874,1921.642456 
	C1484.395386,1931.228027 1466.096436,1940.845459 1447.228882,1949.101074 
	C1422.109985,1960.091919 1396.517578,1970.028564 1370.954590,1979.970337 
	C1332.945679,1994.752319 1293.643799,2005.417603 1254.028931,2014.757935 
	C1232.661987,2019.795898 1210.898560,2023.209229 1189.243530,2026.947754 
	C1175.332031,2029.349487 1161.322632,2031.262573 1147.301758,2032.930420 
	C1133.352051,2034.589600 1119.346069,2035.825928 1105.340820,2036.952148 
	C1094.017944,2037.862793 1082.667236,2038.689209 1071.315796,2038.928833 
	C1044.898315,2039.486206 1018.472595,2039.927124 992.050964,2039.888184 
	C979.215759,2039.869263 966.382385,2038.666748 953.070312,2038.000000 
M1439.994751,816.485046 
	C1434.024170,802.822998 1428.927856,788.689514 1421.876587,775.610168 
	C1411.508057,756.377563 1400.793091,737.162781 1388.284302,719.299866 
	C1375.310425,700.772461 1360.694092,683.262939 1345.568604,666.409851 
	C1328.767944,647.690369 1309.679688,631.274780 1289.622314,615.963623 
	C1268.912720,600.154724 1247.050049,586.231506 1224.056274,574.133484 
	C1211.971191,567.775085 1199.469849,562.046204 1186.734741,557.124573 
	C1169.670288,550.529602 1152.399170,544.299072 1134.846191,539.183899 
	C1114.972290,533.392456 1094.751221,528.768066 1073.998169,526.948059 
	C1062.295776,525.921936 1050.661133,523.441040 1038.963379,523.200745 
	C1019.400940,522.799011 999.807983,523.512817 980.236816,524.071472 
	C971.727478,524.314270 963.136047,524.719299 954.764832,526.133545 
	C937.584167,529.036072 920.454285,532.338135 903.434753,536.073853 
	C873.316345,542.684570 844.533386,553.389587 816.866394,566.816040 
	C801.366272,574.338074 786.548950,583.299683 771.600464,591.918823 
	C745.407227,607.021423 722.049988,625.959656 700.089722,646.563843 
	C681.488647,664.016235 664.423523,682.904846 648.991882,703.322327 
	C635.351440,721.369812 622.803650,740.091675 612.150513,759.979126 
	C604.105347,774.997986 596.458130,790.353088 590.215759,806.182434 
	C582.906555,824.716919 576.357544,843.674255 571.248840,862.918091 
	C566.325745,881.463013 563.278931,900.543945 560.136658,919.510193 
	C558.085083,931.892761 556.305481,944.484253 556.226196,956.993713 
	C556.085754,979.152710 556.884766,1001.346375 558.166565,1023.474792 
	C558.936707,1036.769531 560.678894,1050.100220 563.198181,1063.181030 
	C567.761597,1086.876221 573.962830,1110.195801 582.015930,1132.986938 
	C591.169983,1158.893799 602.730164,1183.745850 616.369812,1207.522705 
	C627.559448,1227.028564 640.173828,1245.652100 654.517639,1263.120361 
	C668.986084,1280.740234 683.361389,1298.367310 700.720093,1313.285156 
	C712.300049,1323.236938 723.678223,1333.445801 735.598145,1342.974854 
	C755.429138,1358.828491 777.003174,1372.084839 799.378357,1384.033813 
	C826.823975,1398.690430 855.531799,1410.317871 885.409180,1418.924927 
	C905.759216,1424.787354 926.343872,1429.757202 947.481750,1432.007446 
	C962.737793,1433.631592 977.962708,1436.408813 993.242676,1436.732666 
	C1013.226807,1437.156250 1033.279663,1436.109619 1053.248657,1434.841675 
	C1066.052002,1434.028687 1078.905518,1432.404419 1091.472534,1429.846191 
	C1110.896362,1425.892212 1130.308228,1421.568115 1149.337402,1416.060791 
	C1177.639404,1407.870117 1204.599609,1396.135132 1230.433716,1381.911377 
	C1251.967896,1370.055054 1272.597046,1356.873047 1291.957764,1341.626587 
	C1311.035767,1326.602905 1329.631470,1311.125122 1345.631836,1292.778076 
	C1355.416992,1281.557739 1365.074951,1270.222534 1374.614502,1258.792480 
	C1391.019531,1239.136475 1404.221069,1217.322632 1416.404175,1194.926025 
	C1422.856812,1183.064209 1428.965088,1170.881104 1433.766479,1158.285645 
	C1441.482300,1138.045166 1449.018677,1117.623779 1454.695923,1096.752563 
	C1459.821289,1077.910645 1462.787842,1058.432739 1465.877319,1039.102783 
	C1467.988770,1025.892090 1469.385742,1012.478271 1469.846924,999.112000 
	C1470.707886,974.153503 1470.107788,949.182312 1466.975708,924.349548 
	C1466.001099,916.622681 1465.203857,908.833069 1463.553467,901.239990 
	C1459.964966,884.729309 1456.327637,868.203247 1451.846680,851.921143 
	C1448.615356,840.179871 1443.990845,828.822021 1439.994751,816.485046 
M1428.991699,1535.490601 
	C1423.476807,1534.274170 1418.001465,1532.824829 1412.440186,1531.882202 
	C1390.532349,1528.168945 1368.679077,1523.956543 1346.644653,1521.229980 
	C1331.610229,1519.369629 1316.305298,1519.016113 1301.127319,1519.098511 
	C1102.791382,1520.175171 904.439392,1516.465210 706.117126,1521.064331 
	C698.772339,1521.234741 691.390625,1521.978027 684.129456,1523.114746 
	C671.167786,1525.143799 658.158508,1527.138184 645.399597,1530.129639 
	C627.266785,1534.381348 609.182312,1539.000977 591.385681,1544.467407 
	C579.758423,1548.038818 568.386536,1552.785400 557.416199,1558.075562 
	C538.158386,1567.361816 518.786621,1576.608765 500.421356,1587.490234 
	C484.166351,1597.121338 468.859009,1608.485596 453.796631,1619.955811 
	C440.456268,1630.114746 427.865356,1641.286865 415.264465,1652.376221 
	C408.526001,1658.306519 402.283051,1664.836182 396.139709,1671.398071 
	C385.674774,1682.575806 375.331787,1693.874756 365.193695,1705.349121 
	C358.278107,1713.176270 351.798187,1721.388428 344.504517,1730.174072 
	C556.549866,1923.756470 805.341553,2016.745728 1092.364868,1998.385376 
	C1328.285645,1983.294312 1532.089600,1890.608032 1705.436523,1729.598633 
	C1703.826538,1728.118408 1702.457886,1727.111084 1701.396851,1725.845703 
	C1689.638794,1711.823608 1678.649536,1697.073730 1666.046021,1683.862183 
	C1644.103760,1660.860962 1621.361816,1638.694092 1595.990234,1619.238403 
	C1572.503418,1601.227783 1547.885254,1585.173218 1521.763794,1571.448730 
	C1497.962280,1558.943115 1473.177002,1548.628296 1447.339355,1540.998291 
	C1441.475464,1539.266602 1435.583252,1537.630981 1428.991699,1535.490601 
z"/>
<path fill="#000000" opacity="1.000000" stroke="none" 
	d="
M1439.991211,816.889099 
	C1443.990845,828.822021 1448.615356,840.179871 1451.846680,851.921143 
	C1456.327637,868.203247 1459.964966,884.729309 1463.553467,901.239990 
	C1465.203857,908.833069 1466.001099,916.622681 1466.975708,924.349548 
	C1470.107788,949.182312 1470.707886,974.153503 1469.846924,999.112000 
	C1469.385742,1012.478271 1467.988770,1025.892090 1465.877319,1039.102783 
	C1462.787842,1058.432739 1459.821289,1077.910645 1454.695923,1096.752563 
	C1449.018677,1117.623779 1441.482300,1138.045166 1433.766479,1158.285645 
	C1428.965088,1170.881104 1422.856812,1183.064209 1416.404175,1194.926025 
	C1404.221069,1217.322632 1391.019531,1239.136475 1374.614502,1258.792480 
	C1365.074951,1270.222534 1355.416992,1281.557739 1345.631836,1292.778076 
	C1329.631470,1311.125122 1311.035767,1326.602905 1291.957764,1341.626587 
	C1272.597046,1356.873047 1251.967896,1370.055054 1230.433716,1381.911377 
	C1204.599609,1396.135132 1177.639404,1407.870117 1149.337402,1416.060791 
	C1130.308228,1421.568115 1110.896362,1425.892212 1091.472534,1429.846191 
	C1078.905518,1432.404419 1066.052002,1434.028687 1053.248657,1434.841675 
	C1033.279663,1436.109619 1013.226807,1437.156250 993.242676,1436.732666 
	C977.962708,1436.408813 962.737793,1433.631592 947.481750,1432.007446 
	C926.343872,1429.757202 905.759216,1424.787354 885.409180,1418.924927 
	C855.531799,1410.317871 826.823975,1398.690430 799.378357,1384.033813 
	C777.003174,1372.084839 755.429138,1358.828491 735.598145,1342.974854 
	C723.678223,1333.445801 712.300049,1323.236938 700.720093,1313.285156 
	C683.361389,1298.367310 668.986084,1280.740234 654.517639,1263.120361 
	C640.173828,1245.652100 627.559448,1227.028564 616.369812,1207.522705 
	C602.730164,1183.745850 591.169983,1158.893799 582.015930,1132.986938 
	C573.962830,1110.195801 567.761597,1086.876221 563.198181,1063.181030 
	C560.678894,1050.100220 558.936707,1036.769531 558.166565,1023.474792 
	C556.884766,1001.346375 556.085754,979.152710 556.226196,956.993713 
	C556.305481,944.484253 558.085083,931.892761 560.136658,919.510193 
	C563.278931,900.543945 566.325745,881.463013 571.248840,862.918091 
	C576.357544,843.674255 582.906555,824.716919 590.215759,806.182434 
	C596.458130,790.353088 604.105347,774.997986 612.150513,759.979126 
	C622.803650,740.091675 635.351440,721.369812 648.991882,703.322327 
	C664.423523,682.904846 681.488647,664.016235 700.089722,646.563843 
	C722.049988,625.959656 745.407227,607.021423 771.600464,591.918823 
	C786.548950,583.299683 801.366272,574.338074 816.866394,566.816040 
	C844.533386,553.389587 873.316345,542.684570 903.434753,536.073853 
	C920.454285,532.338135 937.584167,529.036072 954.764832,526.133545 
	C963.136047,524.719299 971.727478,524.314270 980.236816,524.071472 
	C999.807983,523.512817 1019.400940,522.799011 1038.963379,523.200745 
	C1050.661133,523.441040 1062.295776,525.921936 1073.998169,526.948059 
	C1094.751221,528.768066 1114.972290,533.392456 1134.846191,539.183899 
	C1152.399170,544.299072 1169.670288,550.529602 1186.734741,557.124573 
	C1199.469849,562.046204 1211.971191,567.775085 1224.056274,574.133484 
	C1247.050049,586.231506 1268.912720,600.154724 1289.622314,615.963623 
	C1309.679688,631.274780 1328.767944,647.690369 1345.568604,666.409851 
	C1360.694092,683.262939 1375.310425,700.772461 1388.284302,719.299866 
	C1400.793091,737.162781 1411.508057,756.377563 1421.876587,775.610168 
	C1428.927856,788.689514 1434.024170,802.822998 1439.991211,816.889099 
z"/>
<path fill="#000000" opacity="1.000000" stroke="none" 
	d="
M1429.347900,1535.720825 
	C1435.583252,1537.630981 1441.475464,1539.266602 1447.339355,1540.998291 
	C1473.177002,1548.628296 1497.962280,1558.943115 1521.763794,1571.448730 
	C1547.885254,1585.173218 1572.503418,1601.227783 1595.990234,1619.238403 
	C1621.361816,1638.694092 1644.103760,1660.860962 1666.046021,1683.862183 
	C1678.649536,1697.073730 1689.638794,1711.823608 1701.396851,1725.845703 
	C1702.457886,1727.111084 1703.826538,1728.118408 1705.436523,1729.598633 
	C1532.089600,1890.608032 1328.285645,1983.294312 1092.364868,1998.385376 
	C805.341553,2016.745728 556.549866,1923.756470 344.504517,1730.174072 
	C351.798187,1721.388428 358.278107,1713.176270 365.193695,1705.349121 
	C375.331787,1693.874756 385.674774,1682.575806 396.139709,1671.398071 
	C402.283051,1664.836182 408.526001,1658.306519 415.264465,1652.376221 
	C427.865356,1641.286865 440.456268,1630.114746 453.796631,1619.955811 
	C468.859009,1608.485596 484.166351,1597.121338 500.421356,1587.490234 
	C518.786621,1576.608765 538.158386,1567.361816 557.416199,1558.075562 
	C568.386536,1552.785400 579.758423,1548.038818 591.385681,1544.467407 
	C609.182312,1539.000977 627.266785,1534.381348 645.399597,1530.129639 
	C658.158508,1527.138184 671.167786,1525.143799 684.129456,1523.114746 
	C691.390625,1521.978027 698.772339,1521.234741 706.117126,1521.064331 
	C904.439392,1516.465210 1102.791382,1520.175171 1301.127319,1519.098511 
	C1316.305298,1519.016113 1331.610229,1519.369629 1346.644653,1521.229980 
	C1368.679077,1523.956543 1390.532349,1528.168945 1412.440186,1531.882202 
	C1418.001465,1532.824829 1423.476807,1534.274170 1429.347900,1535.720825 
z"/>
</svg>